PathFileType	4	(X/Y/Z)	C:/Users/opensim2020/Desktop/walking_exp_matlab/subject01_walking08_straight_01.trc																																																																																																																															
DataRate	CameraRate	NumFrames	NumMarkers	Units	OrigDataRate	OrigDataStartFrame	OrigNumFrames																																																																																																																											
100	100	4	43	mm	100	1059	377																																																																																																																											
Frame#	Time	LFHD			RFHD			LBHD			RBHD			C7			T10			CLAV			STRN			RBAK			LSHO			LUPA			LELB			LFRM			LWRA			LWRB			LFIN			RSHO			RUPA			RELB			RFRM			RWRA			RWRB			RFIN			LASI			RASI			LPSI			RPSI			LTHI			LKNE			LTIB			LANK			LHEE			LTOE			RTHI			RKNE			RTIB			RANK			RHEE			RTOE			*39			*40			*41			*42		
		X1	Y1	Z1	X2	Y2	Z2	X3	Y3	Z3	X4	Y4	Z4	X5	Y5	Z5	X6	Y6	Z6	X7	Y7	Z7	X8	Y8	Z8	X9	Y9	Z9	X10	Y10	Z10	X11	Y11	Z11	X12	Y12	Z12	X13	Y13	Z13	X14	Y14	Z14	X15	Y15	Z15	X16	Y16	Z16	X17	Y17	Z17	X18	Y18	Z18	X19	Y19	Z19	X20	Y20	Z20	X21	Y21	Z21	X22	Y22	Z22	X23	Y23	Z23	X24	Y24	Z24	X25	Y25	Z25	X26	Y26	Z26	X27	Y27	Z27	X28	Y28	Z28	X29	Y29	Z29	X30	Y30	Z30	X31	Y31	Z31	X32	Y32	Z32	X33	Y33	Z33	X34	Y34	Z34	X35	Y35	Z35	X36	Y36	Z36	X37	Y37	Z37	X38	Y38	Z38	X39	Y39	Z39	X40	Y40	Z40	X41	Y41	Z41	X42	Y42	Z42	X43	Y43	Z43
																																																																																																																																		
330	3.29	556.53864	1685.93579	-1026.39624	568.49567	1694.20288	-912.43256	453.01828	1616.36353	-1019.73737	462.58151	1623.21167	-898.75677	446.5076	1439.18311	-975.13184	417.32486	1146.21912	-959.26392	592.13672	1375.67419	-972.68359	638.8797	1220.43164	-975.211	398.55661	1245.87622	-890.10663	533.52222	1399.95911	-1134.98462	503.21976	1212.67664	-1214.48962	486.64511	1062.51453	-1208.39124	523.82452	954.68823	-1232.05176	603.81445	839.90686	-1215.11975	547.65582	834.53632	-1236.36487	594.3703	762.87518	-1243.97681	532.00494	1402.29883	-820.85968	495.08759	1201.02661	-710.77075	509.16672	1076.12537	-703.72113	561.97565	965.7464	-678.5871	661.49762	868.18921	-708.47192	623.47418	860.3725	-665.61017	675.66406	793.24829	-671.06769	589.72888	943.50995	-1066.21265	585.10315	935.34839	-848.9386	402.84665	952.47217	-1019.11273	401.43884	953.19141	-874.58032	641.87134	631.10333	-1144.59692	667.03827	498.47516	-1131.43164	614.50037	318.71082	-1145.85168	593.06866	97.35139	-1105.20508	554.97968	63.75048	-1047.4967	733.02429	59.92588	-1125.15125	518.83673	601.09698	-809.12274	523.04852	443.04941	-841.23181	462.1951	277.13394	-842.08337	424.32501	76.78854	-895.83569	373.96072	39.39278	-947.07001	562.75348	38.69505	-891.94025	548.44183	1724.0791	-934.86182	1973.20825	1023.46887	-3101.948	2012.47961	1022.02448	-3140.71631	NaN	NaN	NaN
331	3.3	562.44458	1685.61633	-1027.39136	574.39404	1693.7832	-912.97375	458.85538	1615.93176	-1020.05579	468.52771	1622.89124	-899.15912	452.26044	1438.84082	-975.47644	422.85043	1145.88342	-959.53918	597.83221	1375.20825	-973.0014	644.45197	1219.91626	-975.35046	404.19846	1245.63379	-890.22455	539.18268	1399.47119	-1135.17542	508.54742	1212.15381	-1214.7655	491.55728	1062.21777	-1208.56262	527.81592	954.12042	-1232.25647	606.43488	838.32819	-1215.25977	550.48529	833.72546	-1236.76563	596.43933	761.65063	-1244.51147	537.88763	1402.06104	-821.20398	501.01797	1200.89014	-710.86261	515.19641	1075.91443	-703.82312	568.5368	965.73511	-678.89404	668.82794	869.10016	-709.0152	630.58478	860.63849	-666.11041	683.45941	794.07074	-671.68536	595.26868	943.24451	-1066.18542	590.20917	934.9472	-849.00842	408.10263	952.28345	-1019.3725	406.6149	953.01215	-874.86798	645.99402	630.27032	-1145.23657	672.1004	497.96393	-1131.62085	626.99097	316.68307	-1146.9198	615.39276	94.25224	-1107.13232	578.04681	59.14995	-1049.71423	756.95728	62.24728	-1125.99707	522.65729	600.76031	-809.38715	525.21069	442.49377	-841.0954	463.2757	277.1835	-842.08752	425.01358	77.0788	-895.70685	374.0231	39.64316	-947.23108	562.80731	38.66439	-891.93304	554.39471	1723.65857	-935.40204	1973.20081	1023.44653	-3101.89111	2012.46045	1021.97345	-3140.64746	NaN	NaN	NaN
332	3.31	568.3197	1684.88928	-1027.42871	580.31665	1693.30493	-913.55481	464.72235	1615.43518	-1020.60004	474.36978	1622.49036	-899.57983	457.93625	1438.38037	-975.94586	428.47833	1145.55408	-959.96973	603.57416	1374.70776	-973.36176	650.10321	1219.40649	-975.55542	409.81244	1245.33752	-890.43121	544.87842	1398.90613	-1135.58179	513.96045	1211.60022	-1215.08228	496.63391	1061.77466	-1208.85168	531.95496	953.51813	-1232.60107	609.55798	836.99933	-1215.75879	553.46417	832.91101	-1237.25696	598.75995	760.35675	-1244.84717	543.68762	1401.70251	-821.69495	507.11368	1200.62842	-711.11243	521.12708	1075.64807	-703.87781	575.15631	965.73633	-679.22058	675.91943	869.51788	-709.49689	638.02441	861.02014	-666.61957	691.25391	794.73303	-672.32727	600.91888	942.91748	-1066.25146	595.38849	934.50824	-849.06079	413.70175	951.93463	-1019.724	411.92084	952.57428	-875.13446	650.58789	629.28253	-1146.19604	677.16376	497.37637	-1132.01526	639.51416	314.95178	-1148.00134	636.77283	91.4297	-1108.8689	601.35077	55.13039	-1051.45691	779.93982	65.43626	-1126.86487	526.40863	600.34491	-809.44727	527.62018	442.15765	-841.10931	464.79095	277.06891	-842.2453	425.24655	77.18265	-895.72986	374.1228	40.1046	-947.16144	562.83875	38.75848	-891.70001	560.27582	1723.16443	-936.18591	1973.19641	1023.29926	-3101.81641	2012.53943	1022.05713	-3140.70752	NaN	NaN	NaN
333	3.32	574.18988	1684.30701	-1028.09412	586.26068	1692.81677	-914.19177	470.55716	1614.90295	-1021.17572	480.25839	1621.99878	-900.25214	463.64429	1437.89355	-976.24573	434.02777	1145.05798	-960.4577	609.25055	1374.16785	-973.81793	655.7348	1218.82617	-975.80365	415.43427	1244.94849	-890.77832	550.6098	1398.33374	-1136.13306	519.50873	1211.01416	-1215.52637	501.78339	1061.3739	-1209.25195	536.25128	952.8844	-1233.03516	612.73981	835.59406	-1216.06799	556.65216	832.10297	-1237.79724	601.32855	759.16138	-1245.38013	549.30865	1401.25269	-822.11938	513.01373	1200.36108	-711.35071	527.08997	1075.28516	-704.25037	581.76105	965.54767	-679.67859	683.00922	870.03986	-710.19653	645.14044	861.25891	-667.14105	698.86334	795.3197	-673.11987	606.6839	942.55518	-1066.36816	600.66089	934.03076	-849.15729	419.68594	951.32703	-1020.19336	417.28845	952.08466	-875.73871	654.4502	628.2525	-1146.95691	682.37976	496.84628	-1132.2981	651.72363	313.57172	-1149.17957	657.71857	89.66264	-1110.37769	622.97668	52.0551	-1053.58997	802.3136	69.15408	-1127.37854	530.09521	600.01465	-809.58472	530.06042	441.75229	-841.50793	466.16977	277.03824	-842.22089	425.17493	77.37993	-895.86127	374.1813	40.35947	-947.30573	562.88599	38.7225	-891.86023	566.35681	1722.74121	-936.74457	1973.06543	1023.62952	-3101.92554	2012.46936	1022.08795	-3140.59302	NaN	NaN	NaN
